<svg width="36" height="36" viewBox="0 0 36 36" fill="none" xmlns="http://www.w3.org/2000/svg">
<circle opacity="0.4" cx="18" cy="18" r="18" fill="#E0E6ED"/>
<path d="M18 7.77344C12.211 7.77344 7.5 12.4844 7.5 18.2734C7.5 24.0624 12.211 28.7734 18 28.7734C23.789 28.7734 28.5 24.0624 28.5 18.2734C28.5 12.4844 23.789 7.77344 18 7.77344ZM18 9.52344C22.8431 9.52344 26.75 13.4303 26.75 18.2734C26.7516 20.368 26.0003 22.3934 24.633 23.9802C23.2658 25.567 21.3738 26.6095 19.302 26.9176V20.8249H21.794L22.1851 18.2936H19.302V16.9111C19.302 15.8611 19.6476 14.9274 20.6303 14.9274H22.2096V12.7189C21.9323 12.6813 21.3451 12.5999 20.2356 12.5999C17.9186 12.5999 16.5606 13.8232 16.5606 16.6109V18.2936H14.1789V20.8249H16.5606V26.8957C14.5173 26.5594 12.6601 25.5075 11.3209 23.928C9.98163 22.3485 9.24763 20.3443 9.25 18.2734C9.25 13.4303 13.1569 9.52344 18 9.52344Z" fill="black"/>
</svg>
