<svg width="36" height="36" viewBox="0 0 36 36" fill="none" xmlns="http://www.w3.org/2000/svg">
<circle opacity="0.4" cx="18" cy="18" r="18" fill="#E0E6ED"/>
<path fill-rule="evenodd" clip-rule="evenodd" d="M13 26.8594C9.35 26.8594 7.25 24.7594 7.25 21.1094V14.1094C7.25 10.4594 9.35 8.35938 13 8.35938H23C26.65 8.35938 28.75 10.4594 28.75 14.1094V21.1094C28.75 24.7594 26.65 26.8594 23 26.8594H13ZM8.75 14.1094V21.1094C8.75 23.9694 10.14 25.3594 13 25.3594H23C25.86 25.3594 27.25 23.9694 27.25 21.1094V14.1094C27.25 11.2494 25.86 9.85938 23 9.85938H13C10.14 9.85938 8.75 11.2494 8.75 14.1094Z" fill="black"/>
<path d="M15.6588 17.6893L12.5288 15.1893C12.2088 14.9293 12.1488 14.4593 12.4088 14.1393C12.6688 13.8193 13.1388 13.7593 13.4588 14.0193L16.5888 16.5193C17.3488 17.1293 18.6388 17.1293 19.3988 16.5193L22.5288 14.0193C22.8488 13.7593 23.3288 13.8093 23.5788 14.1393C23.8388 14.4593 23.7888 14.9393 23.4588 15.1893L20.3288 17.6893C19.6888 18.2193 18.8388 18.4793 17.9988 18.4793C17.1588 18.4793 16.3088 18.2193 15.6588 17.6893Z" fill="black"/>
</svg>
