<svg width="36" height="36" viewBox="0 0 36 36" fill="none" xmlns="http://www.w3.org/2000/svg">
<circle opacity="0.4" cx="18" cy="18" r="18" fill="#E0E6ED"/>
<path d="M21 9.77344H15C11.9624 9.77344 9.5 12.2359 9.5 15.2734V21.2734C9.5 24.311 11.9624 26.7734 15 26.7734H21C24.0376 26.7734 26.5 24.311 26.5 21.2734V15.2734C26.5 12.2359 24.0376 9.77344 21 9.77344Z" stroke="black" stroke-width="1.5" stroke-linecap="round" stroke-linejoin="round"/>
<path d="M18 21.88C19.9915 21.88 21.606 20.2655 21.606 18.274C21.606 16.2824 19.9915 14.668 18 14.668C16.0084 14.668 14.394 16.2824 14.394 18.274C14.394 20.2655 16.0084 21.88 18 21.88Z" stroke="black" stroke-width="1.5" stroke-linecap="round" stroke-linejoin="round"/>
<path d="M22.894 14.4096C23.4629 14.4096 23.924 13.9485 23.924 13.3796C23.924 12.8108 23.4629 12.3496 22.894 12.3496C22.3252 12.3496 21.864 12.8108 21.864 13.3796C21.864 13.9485 22.3252 14.4096 22.894 14.4096Z" fill="black"/>
</svg>
