<svg width="36" height="36" viewBox="0 0 36 36" fill="none" xmlns="http://www.w3.org/2000/svg">
<circle opacity="0.4" cx="18" cy="18" r="18" fill="#E0E6ED"/>
<path d="M22.1238 21.8301L21.7714 21.4754C22.1238 21.8301 22.1234 21.8305 22.1229 21.831L22.1219 21.832L22.1198 21.8341L22.1151 21.8385L22.104 21.8489C22.0958 21.8563 22.086 21.8649 22.0746 21.8743C22.0517 21.8933 22.0223 21.9158 21.9859 21.9401C21.9131 21.9889 21.8131 22.0445 21.6839 22.0926C21.4222 22.19 21.0591 22.2495 20.5881 22.1772C19.6586 22.0345 18.3386 21.3849 16.5091 19.5659C14.68 17.7473 14.0257 16.4343 13.8821 15.5081C13.8093 15.0384 13.8695 14.6759 13.9681 14.4146C14.0167 14.2857 14.0729 14.1859 14.1221 14.1134C14.1467 14.0771 14.1694 14.0478 14.1885 14.0251C14.198 14.0137 14.2067 14.0039 14.2142 13.9958L14.2246 13.9848L14.2291 13.9801L14.2312 13.978L14.232 13.9772L14.2321 13.977L14.5797 13.6295L14.581 13.6282C15.255 12.959 15.3321 11.868 14.7239 11.0557L14.7239 11.0557L13.1919 9.00945C12.4337 7.99719 10.9936 7.88733 10.1584 8.71774L10.1583 8.71786L8.25004 10.6139C8.24994 10.614 8.24983 10.6141 8.24973 10.6142L22.1238 21.8301ZM22.1238 21.8301L22.1242 21.8297M22.1238 21.8301L22.1242 21.8297M22.1242 21.8297L22.6771 21.2792C22.6772 21.2792 22.6772 21.2791 22.6773 21.2791C23.2795 20.6809 24.2289 20.5476 25.0239 20.9787L27.3457 22.2417L27.346 22.2418C28.5662 22.9046 28.799 24.4995 27.8865 25.4053L27.8862 25.4056L26.1596 27.1224L26.1591 27.123C25.7783 27.5027 25.3362 27.749 24.8548 27.7938L24.8547 27.7938M22.1242 21.8297L24.8547 27.7938M24.8547 27.7938C22.9938 27.9675 18.3041 27.7948 13.2637 22.7841M24.8547 27.7938L13.2637 22.7841M13.2637 22.7841C8.48423 18.0309 7.66216 13.9979 7.55956 12.1894L13.2637 22.7841Z" stroke="black"/>
</svg>
