<svg width="36" height="36" viewBox="0 0 36 36" fill="none" xmlns="http://www.w3.org/2000/svg">
<circle opacity="0.4" cx="18" cy="18" r="18" fill="#E0E6ED"/>
<path d="M25.05 10.9101C24.1331 9.98416 23.041 9.25002 21.8375 8.75042C20.634 8.25081 19.3431 7.99574 18.04 8.00005C12.58 8.00005 8.12999 12.4501 8.12999 17.9101C8.12999 19.6601 8.58999 21.3601 9.44999 22.8601L8.04999 28.0001L13.3 26.6201C14.75 27.4101 16.38 27.8301 18.04 27.8301C23.5 27.8301 27.95 23.3801 27.95 17.9201C27.95 15.2701 26.92 12.7801 25.05 10.9101ZM18.04 26.1501C16.56 26.1501 15.11 25.7501 13.84 25.0001L13.54 24.8201L10.42 25.6401L11.25 22.6001L11.05 22.2901C10.2275 20.9771 9.79091 19.4593 9.78999 17.9101C9.78999 13.3701 13.49 9.67005 18.03 9.67005C20.23 9.67005 22.3 10.5301 23.85 12.0901C24.6176 12.8539 25.2259 13.7626 25.6396 14.7634C26.0533 15.7642 26.2642 16.8371 26.26 17.9201C26.28 22.4601 22.58 26.1501 18.04 26.1501ZM22.56 19.9901C22.31 19.8701 21.09 19.2701 20.87 19.1801C20.64 19.1001 20.48 19.0601 20.31 19.3001C20.14 19.5501 19.67 20.1101 19.53 20.2701C19.39 20.4401 19.24 20.4601 18.99 20.3301C18.74 20.2101 17.94 19.9401 17 19.1001C16.26 18.4401 15.77 17.6301 15.62 17.3801C15.48 17.1301 15.6 17.0001 15.73 16.8701C15.84 16.7601 15.98 16.5801 16.1 16.4401C16.22 16.3001 16.27 16.1901 16.35 16.0301C16.43 15.8601 16.39 15.7201 16.33 15.6001C16.27 15.4801 15.77 14.2601 15.57 13.7601C15.37 13.2801 15.16 13.3401 15.01 13.3301H14.53C14.36 13.3301 14.1 13.3901 13.87 13.6401C13.65 13.8901 13.01 14.4901 13.01 15.7101C13.01 16.9301 13.9 18.1101 14.02 18.2701C14.14 18.4401 15.77 20.9401 18.25 22.0101C18.84 22.2701 19.3 22.4201 19.66 22.5301C20.25 22.7201 20.79 22.6901 21.22 22.6301C21.7 22.5601 22.69 22.0301 22.89 21.4501C23.1 20.8701 23.1 20.3801 23.03 20.2701C22.96 20.1601 22.81 20.1101 22.56 19.9901Z" fill="black"/>
</svg>
