<svg  viewBox="0 0 900 601" fill="none" xmlns="http://www.w3.org/2000/svg">
<path d="M739.268 139.413H207.031C191.567 139.413 179.031 151.949 179.031 167.413V481.1C179.031 496.564 191.567 509.1 207.031 509.1H739.268C754.732 509.1 767.268 496.564 767.268 481.1V167.413C767.268 151.949 754.732 139.413 739.268 139.413Z" fill="white" stroke="#E5E7EB" stroke-width="4"/>
<path d="M683.205 166.591H642.44C636.04 166.591 630.851 171.779 630.851 178.179C630.851 184.579 636.04 189.768 642.44 189.768H683.205C689.606 189.768 694.794 184.579 694.794 178.179C694.794 171.779 689.606 166.591 683.205 166.591Z" fill="white" stroke="#E5E7EB" stroke-width="4"/>
<path d="M597.144 166.591H556.379C549.979 166.591 544.79 171.779 544.79 178.179C544.79 184.579 549.979 189.768 556.379 189.768H597.144C603.544 189.768 608.733 184.579 608.733 178.179C608.733 171.779 603.544 166.591 597.144 166.591Z" fill="white" stroke="#E5E7EB" stroke-width="4"/>
<path d="M522.672 178.179C522.672 171.779 517.484 166.591 511.084 166.591C504.683 166.591 499.495 171.779 499.495 178.179C499.495 184.579 504.683 189.768 511.084 189.768C517.484 189.768 522.672 184.579 522.672 178.179Z" fill="white" stroke="#E5E7EB" stroke-width="4"/>
<path d="M252.553 381.815H331.611V410.768H364.907V381.815H385.335V353.907H364.907V246.057H321.316L252.553 354.39V381.815ZM332.254 353.907H287.618V352.62L330.967 284.018H332.254V353.907ZM473.118 414.387C514.537 414.387 539.549 382.86 539.63 328.573C539.71 274.689 514.376 243.805 473.118 243.805C431.78 243.805 406.687 274.608 406.607 328.573C406.446 382.699 431.619 414.306 473.118 414.387ZM473.118 385.514C454.219 385.514 441.994 366.534 442.074 328.573C442.155 291.176 454.299 272.356 473.118 272.356C491.857 272.356 504.082 291.176 504.082 328.573C504.162 366.534 491.938 385.514 473.118 385.514ZM561.968 381.815H641.026V410.768H674.322V381.815H694.75V353.907H674.322V246.057H630.731L561.968 354.39V381.815ZM641.669 353.907H597.033V352.62L640.382 284.018H641.669V353.907Z" fill="#E5E7EB"/>
<path d="M235.047 175.915C235.047 170.765 230.872 166.591 225.723 166.591C220.573 166.591 216.399 170.765 216.399 175.915C216.399 181.064 220.573 185.239 225.723 185.239C230.872 185.239 235.047 181.064 235.047 175.915Z" fill="white" stroke="#E5E7EB" stroke-width="4"/>
<path d="M186.698 388.212C193.233 388.212 198.531 393.51 198.531 400.045C198.531 406.58 193.233 411.878 186.698 411.878C180.163 411.878 174.865 406.58 174.865 400.045C174.865 393.51 180.163 388.212 186.698 388.212Z" fill="#E8B53D"/>
<path d="M776.404 260.457C768.48 265.032 758.346 262.317 753.771 254.392C749.195 246.467 751.911 236.334 759.835 231.759C767.76 227.183 777.894 229.898 782.469 237.823C787.044 245.748 784.329 255.882 776.404 260.457Z" fill="#E8B53D"/>
<path d="M466.813 190.421C459.993 190.421 454.464 184.892 454.464 178.072C454.464 171.252 459.993 165.723 466.813 165.723C473.633 165.723 479.162 171.252 479.162 178.072C479.162 184.892 473.633 190.421 466.813 190.421Z" fill="#E5E7EB"/>
<path d="M319.16 148.768C328.237 148.768 335.595 141.41 335.595 132.333C335.595 123.256 328.237 115.898 319.16 115.898C310.083 115.898 302.725 123.256 302.725 132.333C302.725 141.41 310.083 148.768 319.16 148.768Z" fill="#E8B53D"/>
<path d="M554.114 430.7C546.609 430.7 540.525 436.784 540.525 444.289C540.525 451.794 546.609 457.878 554.114 457.878C561.619 457.878 567.703 451.794 567.703 444.289C567.703 436.784 561.619 430.7 554.114 430.7Z" fill="#E8B53D"/>
<path d="M302.76 482.858C295.862 482.858 290.27 477.266 290.27 470.368C290.27 463.47 295.862 457.878 302.76 457.878C309.658 457.878 315.25 463.47 315.25 470.368C315.25 477.266 309.658 482.858 302.76 482.858Z" fill="#E5E7EB"/>
<path d="M427.767 424.057C432.244 426.642 433.778 432.366 431.193 436.843C428.609 441.32 422.884 442.854 418.407 440.269C413.93 437.684 412.397 431.96 414.981 427.483C417.566 423.006 423.29 421.472 427.767 424.057Z" fill="#E5E7EB"/>
<path d="M736.457 163.978L719.433 181.002C718.813 181.622 718.813 182.628 719.433 183.248C720.053 183.867 721.058 183.867 721.678 183.247L738.702 166.223C739.322 165.603 739.323 164.597 738.703 163.977C738.083 163.357 737.077 163.358 736.457 163.978Z" fill="#E5E7EB"/>
<path d="M734.791 176.168L729.882 181.077C729.262 181.697 729.261 182.703 729.881 183.323C730.501 183.943 731.507 183.943 732.127 183.322L737.036 178.413C737.656 177.793 737.657 176.787 737.037 176.168C736.417 175.548 735.411 175.548 734.791 176.168Z" fill="#E5E7EB"/>
<path d="M211.386 464.544L196.152 479.778C195.597 480.333 195.597 481.232 196.152 481.786L196.153 481.787C196.707 482.342 197.606 482.342 198.161 481.787L213.395 466.553C213.949 465.999 213.949 465.099 213.395 464.545L213.394 464.544C212.84 463.99 211.94 463.99 211.386 464.544Z" fill="#E5E7EB"/>
<path d="M209.895 475.45L205.501 479.844C204.947 480.399 204.947 481.298 205.501 481.852L205.502 481.853C206.056 482.408 206.956 482.407 207.51 481.853L211.904 477.459C212.459 476.904 212.459 476.005 211.904 475.451L211.903 475.45C211.349 474.896 210.45 474.896 209.895 475.45Z" fill="#E5E7EB"/>
<path d="M137.56 168.287L167.008 138.838C168.081 137.765 168.081 136.027 167.008 134.954C165.936 133.882 164.197 133.882 163.125 134.954L133.676 164.403C132.604 165.476 132.604 167.214 133.676 168.287C134.749 169.359 136.487 169.359 137.56 168.287Z" fill="#E5E7EB"/>
<path d="M140.443 147.202L148.936 138.709C150.009 137.636 150.009 135.898 148.936 134.825C147.864 133.753 146.125 133.753 145.053 134.825L136.56 143.318C135.487 144.391 135.487 146.129 136.56 147.202C137.632 148.274 139.371 148.274 140.443 147.202Z" fill="#E5E7EB"/>
<path d="M722.41 485.065L743.142 464.334C743.897 463.579 743.897 462.355 743.142 461.6C742.387 460.845 741.163 460.845 740.408 461.6L719.677 482.332C718.922 483.087 718.922 484.31 719.677 485.065C720.432 485.82 721.655 485.82 722.41 485.065Z" fill="#E5E7EB"/>
<path d="M724.44 470.223L730.419 464.244C731.174 463.489 731.174 462.265 730.419 461.51C729.664 460.755 728.441 460.755 727.686 461.51L721.706 467.489C720.951 468.244 720.951 469.468 721.706 470.223C722.461 470.978 723.685 470.978 724.44 470.223Z" fill="#E5E7EB"/>
<path fill-rule="evenodd" clip-rule="evenodd" d="M708.429 103.273H711.733C712.532 103.273 713.175 103.923 713.175 104.715V108.019C713.175 108.818 712.525 109.461 711.733 109.461H708.429C707.637 109.461 706.987 108.811 706.987 108.019V104.715C706.987 104.526 707.024 104.338 707.096 104.163C707.168 103.988 707.275 103.828 707.409 103.695C707.543 103.561 707.702 103.454 707.877 103.382C708.052 103.31 708.24 103.273 708.429 103.273ZM719.884 103.273H723.188C723.98 103.273 724.63 103.923 724.63 104.715V108.019C724.63 108.818 723.98 109.461 723.188 109.461H719.884C719.092 109.461 718.442 108.811 718.442 108.019V104.715C718.442 103.923 719.092 103.273 719.884 103.273ZM731.347 103.273H734.651C735.444 103.273 736.094 103.923 736.094 104.715V108.019C736.094 108.818 735.444 109.461 734.651 109.461H731.347C730.555 109.461 729.905 108.811 729.905 108.019V104.715C729.905 104.526 729.942 104.338 730.014 104.163C730.086 103.988 730.193 103.828 730.327 103.695C730.461 103.561 730.62 103.454 730.795 103.382C730.97 103.31 731.158 103.273 731.347 103.273ZM742.803 103.273H746.107C746.899 103.273 747.549 103.923 747.549 104.715V108.019C747.549 108.818 746.899 109.461 746.107 109.461H742.803C742.42 109.461 742.053 109.309 741.781 109.039C741.51 108.769 741.356 108.402 741.354 108.019V104.715C741.358 104.333 741.513 103.967 741.784 103.698C742.055 103.428 742.421 103.275 742.803 103.273ZM754.259 103.273H757.563C758.362 103.273 759.012 103.923 759.012 104.715V108.019C759.012 108.818 758.362 109.461 757.563 109.461H754.259C753.467 109.461 752.817 108.811 752.817 108.019V104.715C752.817 103.923 753.467 103.273 754.259 103.273ZM720.304 115.765H723.608C724.401 115.765 725.051 116.415 725.051 117.207V120.518C725.051 121.31 724.401 121.96 723.608 121.96H720.304C719.505 121.96 718.862 121.31 718.862 120.518V117.214C718.861 117.024 718.897 116.836 718.969 116.66C719.041 116.484 719.147 116.324 719.281 116.189C719.415 116.055 719.575 115.948 719.75 115.875C719.926 115.802 720.114 115.765 720.304 115.765ZM731.76 115.765H735.064C735.856 115.765 736.506 116.415 736.506 117.207V120.518C736.506 121.31 735.856 121.96 735.064 121.96H731.76C730.968 121.96 730.318 121.31 730.318 120.518V117.214C730.317 117.024 730.353 116.836 730.425 116.66C730.497 116.484 730.603 116.324 730.737 116.189C730.872 116.055 731.031 115.948 731.206 115.875C731.382 115.802 731.57 115.765 731.76 115.765ZM743.216 115.765H746.52C747.319 115.765 747.969 116.415 747.969 117.207V120.518C747.967 120.901 747.814 121.268 747.542 121.538C747.271 121.808 746.903 121.96 746.52 121.96H743.216C742.424 121.96 741.774 121.31 741.774 120.518V117.214C741.774 116.415 742.424 115.765 743.216 115.765ZM731.347 89.853H734.651C735.444 89.853 736.094 90.503 736.094 91.295V94.6C736.094 95.398 735.444 96.042 734.651 96.042H731.347C730.555 96.042 729.905 95.392 729.905 94.6V91.295C729.905 91.1056 729.942 90.9179 730.014 90.7427C730.086 90.5676 730.193 90.4085 730.327 90.2745C730.461 90.1405 730.62 90.0343 730.795 89.962C730.97 89.8897 731.158 89.8526 731.347 89.853ZM742.803 89.853H746.107C746.899 89.853 747.549 90.503 747.549 91.295V94.6C747.549 95.398 746.899 96.042 746.107 96.042H742.803C742.42 96.0418 742.053 95.89 741.781 95.6198C741.51 95.3496 741.356 94.983 741.354 94.6V91.295C741.358 90.9127 741.513 90.5473 741.784 90.2776C742.055 90.0078 742.421 89.8554 742.803 89.853ZM111.663 492.813H114.967C115.766 492.813 116.409 493.463 116.409 494.255V497.559C116.409 498.358 115.759 499.001 114.967 499.001H111.663C110.871 499.001 110.221 498.351 110.221 497.559V494.255C110.221 494.066 110.258 493.878 110.33 493.703C110.402 493.528 110.509 493.368 110.643 493.234C110.777 493.101 110.936 492.994 111.111 492.922C111.286 492.85 111.474 492.813 111.663 492.813ZM123.118 492.813H126.422C127.215 492.813 127.865 493.463 127.865 494.255V497.559C127.865 498.358 127.215 499.001 126.422 499.001H123.118C122.326 499.001 121.676 498.351 121.676 497.559V494.255C121.676 493.463 122.326 492.813 123.118 492.813ZM134.581 492.813H137.886C138.678 492.813 139.328 493.463 139.328 494.255V497.559C139.328 498.358 138.678 499.001 137.886 499.001H134.581C133.789 499.001 133.139 498.351 133.139 497.559V494.255C133.139 494.066 133.176 493.878 133.248 493.703C133.321 493.528 133.427 493.369 133.561 493.235C133.695 493.101 133.854 492.995 134.029 492.922C134.204 492.85 134.392 492.813 134.581 492.813ZM146.037 492.813H149.341C150.133 492.813 150.783 493.463 150.783 494.255V497.559C150.783 498.358 150.133 499.001 149.341 499.001H146.037C145.654 499.001 145.287 498.849 145.015 498.579C144.744 498.309 144.59 497.942 144.588 497.559V494.255C144.592 493.873 144.747 493.507 145.018 493.238C145.289 492.968 145.655 492.815 146.037 492.813ZM157.493 492.813H160.797C161.596 492.813 162.246 493.463 162.246 494.255V497.559C162.246 498.358 161.596 499.001 160.797 499.001H157.493C156.701 499.001 156.051 498.351 156.051 497.559V494.255C156.051 493.463 156.701 492.813 157.493 492.813ZM123.539 505.305H126.843C127.635 505.305 128.285 505.955 128.285 506.747V510.058C128.285 510.85 127.635 511.5 126.843 511.5H123.539C122.74 511.5 122.096 510.85 122.096 510.058V506.754C122.095 506.564 122.132 506.376 122.204 506.2C122.276 506.024 122.382 505.864 122.516 505.729C122.651 505.595 122.81 505.488 122.985 505.415C123.161 505.342 123.349 505.305 123.539 505.305ZM134.994 505.305H138.298C139.09 505.305 139.74 505.955 139.74 506.747V510.058C139.74 510.85 139.09 511.5 138.298 511.5H134.994C134.202 511.5 133.552 510.85 133.552 510.058V506.754C133.551 506.564 133.587 506.376 133.659 506.2C133.731 506.024 133.837 505.864 133.971 505.729C134.106 505.595 134.265 505.488 134.44 505.415C134.616 505.342 134.804 505.305 134.994 505.305ZM146.45 505.305H149.754C150.553 505.305 151.203 505.955 151.203 506.747V510.058C151.201 510.441 151.048 510.808 150.776 511.078C150.505 511.348 150.137 511.5 149.754 511.5H146.45C145.658 511.5 145.008 510.85 145.008 510.058V506.754C145.008 505.955 145.658 505.305 146.45 505.305ZM134.582 479.393H137.886C138.678 479.393 139.328 480.043 139.328 480.836V484.14C139.328 484.939 138.678 485.582 137.886 485.582H134.582C133.789 485.582 133.139 484.932 133.139 484.14V480.836C133.139 480.646 133.176 480.459 133.248 480.283C133.321 480.108 133.427 479.949 133.561 479.815C133.695 479.681 133.854 479.574 134.03 479.502C134.205 479.43 134.393 479.393 134.582 479.393ZM146.037 479.393H149.341C150.133 479.393 150.783 480.043 150.783 480.836V484.14C150.783 484.939 150.133 485.582 149.341 485.582H146.037C145.654 485.582 145.287 485.43 145.015 485.16C144.744 484.89 144.59 484.523 144.588 484.14V480.836C144.592 480.453 144.746 480.088 145.017 479.818C145.288 479.548 145.655 479.395 146.037 479.393Z" fill="#E5E7EB"/>
<path fill-rule="evenodd" clip-rule="evenodd" d="M180.882 326.422C156.242 326.422 136.265 306.163 136.265 281.176C136.265 256.189 156.242 235.931 180.882 235.931C205.522 235.931 225.499 256.189 225.499 281.176C225.499 306.163 205.522 326.422 180.882 326.422Z" fill="#E8B53D"/>
<path d="M198.857 261.976L180.009 282.085L168.693 270.021" stroke="white" stroke-width="7.405" stroke-linecap="round" stroke-linejoin="round"/>
<path d="M161.178 301.335L180.026 281.226L191.342 293.29" stroke="white" stroke-width="7.405" stroke-linecap="round" stroke-linejoin="round"/>
</svg>
