<svg width="19" height="20" viewBox="0 0 19 20" fill="none" xmlns="http://www.w3.org/2000/svg">
  <path d="M6.33301 2.08301V4.45801" stroke="#3E3E3E" stroke-width="1.2" stroke-miterlimit="10" stroke-linecap="round" stroke-linejoin="round" />
  <path d="M12.667 2.08301V4.45801" stroke="#3E3E3E" stroke-width="1.2" stroke-miterlimit="10" stroke-linecap="round" stroke-linejoin="round" />
  <path d="M2.77051 7.69629H16.2288" stroke="#3E3E3E" stroke-width="1.2" stroke-miterlimit="10" stroke-linecap="round" stroke-linejoin="round" />
  <path d="M15.2084 12.9849L12.4059 15.7874C12.2951 15.8982 12.1921 16.1041 12.1684 16.2545L12.018 17.3232C11.9626 17.7111 12.2317 17.9803 12.6196 17.9249L13.6884 17.7745C13.8388 17.7507 14.0526 17.6478 14.1555 17.537L16.958 14.7345C17.4409 14.2516 17.6705 13.6895 16.958 12.977C16.2534 12.2724 15.6913 12.502 15.2084 12.9849Z" stroke="#3E3E3E" stroke-width="1.2" stroke-miterlimit="10" stroke-linecap="round" stroke-linejoin="round" />
  <path d="M14.8047 13.3887C15.0422 14.2437 15.7072 14.9087 16.5622 15.1462" stroke="#3E3E3E" stroke-width="1.2" stroke-miterlimit="10" stroke-linecap="round" stroke-linejoin="round" />
  <path d="M9.5 17.9163H6.33333C3.5625 17.9163 2.375 16.333 2.375 13.958V7.22884C2.375 4.85384 3.5625 3.27051 6.33333 3.27051H12.6667C15.4375 3.27051 16.625 4.85384 16.625 7.22884V9.99967" stroke="#3E3E3E" stroke-width="1.2" stroke-miterlimit="10" stroke-linecap="round" stroke-linejoin="round" />
  <path d="M9.49598 11.346H9.50309" stroke="#3E3E3E" stroke-width="1.2" stroke-linecap="round" stroke-linejoin="round" />
  <path d="M6.56629 11.346H6.5734" stroke="#3E3E3E" stroke-width="1.2" stroke-linecap="round" stroke-linejoin="round" />
  <path d="M6.56629 13.721H6.5734" stroke="#3E3E3E" stroke-width="1.2" stroke-linecap="round" stroke-linejoin="round" />
</svg>
