<svg width="18" height="18" viewBox="0 0 18 18" fill="none" xmlns="http://www.w3.org/2000/svg">
  <mask id="path-1-inside-1_1688_26999" fill="white">
    <path d="M11.25 17.0625H6.75C2.6775 17.0625 0.9375 15.3225 0.9375 11.25V6.75C0.9375 2.6775 2.6775 0.9375 6.75 0.9375H8.25C8.5575 0.9375 8.8125 1.1925 8.8125 1.5C8.8125 1.8075 8.5575 2.0625 8.25 2.0625H6.75C3.2925 2.0625 2.0625 3.2925 2.0625 6.75V11.25C2.0625 14.7075 3.2925 15.9375 6.75 15.9375H11.25C14.7075 15.9375 15.9375 14.7075 15.9375 11.25V9.75C15.9375 9.4425 16.1925 9.1875 16.5 9.1875C16.8075 9.1875 17.0625 9.4425 17.0625 9.75V11.25C17.0625 15.3225 15.3225 17.0625 11.25 17.0625Z" />
  </mask>
  <path d="M11.25 15.8625H6.75V18.2625H11.25V15.8625ZM6.75 15.8625C4.8515 15.8625 3.78244 15.4523 3.16509 14.8349C2.54774 14.2176 2.1375 13.1485 2.1375 11.25H-0.2625C-0.2625 13.424 0.197261 15.2612 1.46803 16.532C2.73881 17.8027 4.576 18.2625 6.75 18.2625V15.8625ZM2.1375 11.25V6.75H-0.2625V11.25H2.1375ZM2.1375 6.75C2.1375 4.8515 2.54774 3.78244 3.16509 3.16509C3.78244 2.54774 4.8515 2.1375 6.75 2.1375V-0.2625C4.576 -0.2625 2.73881 0.197261 1.46803 1.46803C0.197261 2.73881 -0.2625 4.576 -0.2625 6.75H2.1375ZM6.75 2.1375H8.25V-0.2625H6.75V2.1375ZM8.25 2.1375C7.89476 2.1375 7.6125 1.85524 7.6125 1.5H10.0125C10.0125 0.529758 9.22024 -0.2625 8.25 -0.2625V2.1375ZM7.6125 1.5C7.6125 1.14476 7.89476 0.8625 8.25 0.8625V3.2625C9.22024 3.2625 10.0125 2.47024 10.0125 1.5H7.6125ZM8.25 0.8625H6.75V3.2625H8.25V0.8625ZM6.75 0.8625C4.93659 0.8625 3.34975 1.17257 2.26116 2.26116C1.17257 3.34975 0.8625 4.93659 0.8625 6.75H3.2625C3.2625 5.10591 3.56743 4.349 3.95822 3.95822C4.349 3.56743 5.10591 3.2625 6.75 3.2625V0.8625ZM0.8625 6.75V11.25H3.2625V6.75H0.8625ZM0.8625 11.25C0.8625 13.0634 1.17257 14.6503 2.26116 15.7388C3.34975 16.8274 4.93659 17.1375 6.75 17.1375V14.7375C5.10591 14.7375 4.349 14.4326 3.95822 14.0418C3.56743 13.651 3.2625 12.8941 3.2625 11.25H0.8625ZM6.75 17.1375H11.25V14.7375H6.75V17.1375ZM11.25 17.1375C13.0634 17.1375 14.6503 16.8274 15.7388 15.7388C16.8274 14.6503 17.1375 13.0634 17.1375 11.25H14.7375C14.7375 12.8941 14.4326 13.651 14.0418 14.0418C13.651 14.4326 12.8941 14.7375 11.25 14.7375V17.1375ZM17.1375 11.25V9.75H14.7375V11.25H17.1375ZM17.1375 9.75C17.1375 10.1052 16.8552 10.3875 16.5 10.3875V7.9875C15.5298 7.9875 14.7375 8.77976 14.7375 9.75H17.1375ZM16.5 10.3875C16.1448 10.3875 15.8625 10.1052 15.8625 9.75H18.2625C18.2625 8.77976 17.4702 7.9875 16.5 7.9875V10.3875ZM15.8625 9.75V11.25H18.2625V9.75H15.8625ZM15.8625 11.25C15.8625 13.1485 15.4523 14.2176 14.8349 14.8349C14.2176 15.4523 13.1485 15.8625 11.25 15.8625V18.2625C13.424 18.2625 15.2612 17.8027 16.532 16.532C17.8027 15.2612 18.2625 13.424 18.2625 11.25H15.8625Z" fill="#3E3E3E" mask="url(#path-1-inside-1_1688_26999)" />
  <path d="M5.24221 11.4125L5.24247 11.4106L5.56498 9.15313L5.56531 9.15074C5.61003 8.82651 5.84362 8.3634 6.07605 8.13097L11.9861 2.22098C12.6765 1.53056 13.3087 1.24805 13.8825 1.24805C14.4563 1.24805 15.0885 1.53056 15.7789 2.22098C16.5307 2.9727 16.8012 3.66679 16.7447 4.30261C16.6919 4.82355 16.4112 5.38102 15.7809 6.00441L15.7789 6.00637L9.86895 11.9164C9.63652 12.1488 9.17341 12.3824 8.84918 12.4271L8.84679 12.4274L6.58929 12.7499L6.56827 12.753L6.54757 12.7577C6.53399 12.7609 6.51457 12.7638 6.48532 12.7655C6.45449 12.7673 6.42206 12.7674 6.375 12.7674C6.04004 12.7674 5.74902 12.6481 5.54138 12.4467C5.30129 12.2051 5.17974 11.8384 5.24221 11.4125ZM12.0755 2.30735L12.0739 2.30887L6.16394 8.21887C6.03887 8.34395 5.93368 8.51531 5.86002 8.66153C5.78632 8.80785 5.71217 8.99256 5.68581 9.16389L5.68578 9.16389L5.68502 9.16921L5.36252 11.4267L5.36219 11.4291C5.31949 11.7387 5.36994 12.0995 5.63144 12.361C5.89295 12.6225 6.25374 12.6729 6.56332 12.6302L6.56571 12.6299L8.82321 12.3074L8.82321 12.3074L8.82853 12.3066C8.99853 12.2805 9.18438 12.2071 9.33236 12.1331C9.47536 12.0616 9.65107 11.9557 9.77741 11.8246L15.6836 5.91848C16.2016 5.40046 16.5544 4.86134 16.6079 4.28352L16.6079 4.28338C16.6732 3.57566 16.2932 2.919 15.6859 2.30369L15.6859 2.30368L15.6836 2.30137C15.0342 1.65204 14.3895 1.32182 13.7117 1.38455C13.0622 1.44467 12.5293 1.85744 12.0755 2.30735Z" stroke="#3E3E3E" />
  <path d="M14.8875 6.8727L14.886 6.87265L14.8844 6.87211L14.8729 6.86889C13.0688 6.36127 11.6328 4.92571 11.1244 3.12186C11.116 3.08974 11.131 3.05317 11.1705 3.03853C11.205 3.03163 11.2324 3.05128 11.2404 3.08028L11.2404 3.08028L11.2412 3.08327C11.7384 4.84833 13.1369 6.24677 14.9019 6.74397L14.9019 6.74398L14.9049 6.74481C14.9182 6.74846 14.9301 6.75688 14.9389 6.77271C14.948 6.78915 14.9507 6.80849 14.9454 6.82762L14.9442 6.83226C14.9399 6.8485 14.933 6.85616 14.9263 6.86114C14.9182 6.86718 14.9051 6.8727 14.8875 6.8727Z" fill="#3E3E3E" stroke="#3E3E3E" />
</svg>
