<svg width="30" height="30" viewBox="0 0 30 30" fill="none" xmlns="http://www.w3.org/2000/svg">
<path d="M5.77039 9.04573C5.77039 12.1512 8.19914 14.6645 11.365 14.7732C11.4616 14.7612 11.5583 14.7612 11.6308 14.7732C11.655 14.7732 11.6671 14.7732 11.6912 14.7732C11.7033 14.7732 11.7033 14.7732 11.7154 14.7732C14.8087 14.6645 17.2375 12.1512 17.2496 9.04573C17.2496 5.8799 14.6758 3.30615 11.51 3.30615C8.34414 3.30615 5.77039 5.8799 5.77039 9.04573Z" fill="white"/>
<path d="M5.38493 17.9864C3.85035 19.0135 3.00452 20.4031 3.00452 21.8893C3.00452 23.3756 3.85035 24.7531 5.37285 25.7681C7.06452 26.9039 9.28785 27.4718 11.5112 27.4718C13.7345 27.4718 15.9579 26.9039 17.6495 25.7681C19.172 24.741 20.0179 23.3635 20.0179 21.8652C20.0058 20.3789 19.172 19.0014 17.6495 17.9864C14.2783 15.7389 8.78035 15.7389 5.38493 17.9864Z" fill="white"/>
<path d="M21.0068 14.4328C20.9947 14.4328 20.9947 14.4328 20.9826 14.4328H20.9463C20.8738 14.4328 20.8013 14.4328 20.7409 14.457C19.5688 14.5174 18.4934 14.1428 17.6838 13.4541C18.9284 12.3424 19.6413 10.6749 19.4963 8.86241C19.4118 7.88366 19.0734 6.98949 18.5659 6.22824C19.0251 5.99866 19.5568 5.85366 20.1005 5.80533C22.4688 5.59991 24.5834 7.36408 24.7888 9.75658C24.9822 12.1007 23.3147 14.1549 21.0068 14.4328Z" fill="white"/>
<path d="M25.1016 23.812C23.8933 24.4766 22.3708 24.7908 20.8604 24.7545C21.7304 23.9691 22.2379 22.9904 22.3346 21.9512C22.4554 20.4529 21.7425 19.015 20.3166 17.867C19.5071 17.2266 18.5646 16.7191 17.5375 16.3445C20.2079 15.5712 23.5671 16.0908 25.6333 17.7583C26.745 18.6525 27.3129 19.7762 27.2041 20.9362C27.1075 22.1083 26.3583 23.1233 25.1016 23.812Z" fill="white"/>
</svg>
