<svg width="25" height="24" viewBox="0 0 25 24" fill="none" xmlns="http://www.w3.org/2000/svg">
<path d="M7.75 5V2C7.75 1.59 8.09 1.25 8.5 1.25C8.91 1.25 9.25 1.59 9.25 2V5C9.25 5.41 8.91 5.75 8.5 5.75C8.09 5.75 7.75 5.41 7.75 5Z" fill="#E8B53D"/>
<path d="M15.75 5V2C15.75 1.59 16.09 1.25 16.5 1.25C16.91 1.25 17.25 1.59 17.25 2V5C17.25 5.41 16.91 5.75 16.5 5.75C16.09 5.75 15.75 5.41 15.75 5Z" fill="#E8B53D"/>
<path d="M4 9.83984C3.59 9.83984 3.25 9.49984 3.25 9.08984C3.25 8.67984 3.59 8.33984 4 8.33984H21C21.41 8.33984 21.75 8.67984 21.75 9.08984C21.75 9.49984 21.41 9.83984 21 9.83984H4Z" fill="#E8B53D"/>
<path fill-rule="evenodd" clip-rule="evenodd" d="M8.5 22.75C4.85 22.75 2.75 20.65 2.75 17V8.5C2.75 4.85 4.85 2.75 8.5 2.75H16.5C20.15 2.75 22.25 4.85 22.25 8.5V17C22.25 20.65 20.15 22.75 16.5 22.75H8.5ZM4.25 8.5V17C4.25 19.86 5.64 21.25 8.5 21.25H16.5C19.36 21.25 20.75 19.86 20.75 17V8.5C20.75 5.64 19.36 4.25 16.5 4.25H8.5C5.64 4.25 4.25 5.64 4.25 8.5Z" fill="#E8B53D"/>
<path d="M8.62 14.42C8.5 14.37 8.39001 14.3 8.29001 14.21C8.20001 14.11 8.12999 14 8.07999 13.88C8.02999 13.76 8 13.63 8 13.5C8 13.24 8.11001 12.98 8.29001 12.79C8.39001 12.7 8.5 12.63 8.62 12.58C8.8 12.5 9.00001 12.48 9.20001 12.52C9.26001 12.53 9.32 12.55 9.38 12.58C9.44 12.6 9.5 12.63 9.56 12.67C9.61 12.71 9.65999 12.75 9.70999 12.79C9.74999 12.84 9.79999 12.89 9.82999 12.94C9.86999 13 9.90001 13.06 9.92001 13.12C9.95001 13.18 9.97001 13.24 9.98001 13.3C9.99001 13.37 10 13.43 10 13.5C10 13.76 9.88999 14.02 9.70999 14.21C9.51999 14.39 9.26 14.5 9 14.5C8.87 14.5 8.74 14.47 8.62 14.42Z" fill="#E8B53D"/>
<path d="M11.79 14.2089C11.75 14.1589 11.71 14.1089 11.67 14.0589C11.63 13.9989 11.6 13.9389 11.58 13.8789C11.55 13.8189 11.53 13.7589 11.52 13.6989C11.51 13.6289 11.5 13.5689 11.5 13.4989C11.5 13.3689 11.53 13.2389 11.58 13.1189C11.63 12.9989 11.7 12.8889 11.79 12.7889C12.07 12.5089 12.52 12.4189 12.88 12.5789C13.01 12.6289 13.11 12.6989 13.21 12.7889C13.39 12.9789 13.5 13.2389 13.5 13.4989C13.5 13.5689 13.49 13.6289 13.48 13.6989C13.47 13.7589 13.45 13.8189 13.42 13.8789C13.4 13.9389 13.37 13.9989 13.33 14.0589C13.29 14.1089 13.25 14.1589 13.21 14.2089C13.11 14.2989 13.01 14.3689 12.88 14.4189C12.76 14.4689 12.63 14.4989 12.5 14.4989C12.24 14.4989 11.98 14.3889 11.79 14.2089Z" fill="#E8B53D"/>
<path d="M8.62 17.9189C8.5 17.8689 8.39001 17.7989 8.29001 17.7089C8.20001 17.6089 8.12999 17.5089 8.07999 17.3789C8.02999 17.2589 8 17.1289 8 16.9989C8 16.7389 8.11001 16.4789 8.29001 16.2889C8.39001 16.1989 8.5 16.1289 8.62 16.0789C8.99 15.9189 9.42999 16.0089 9.70999 16.2889C9.74999 16.3389 9.79999 16.3889 9.82999 16.4389C9.86999 16.4989 9.90001 16.5589 9.92001 16.6189C9.95001 16.6789 9.97001 16.7389 9.98001 16.8089C9.99001 16.8689 10 16.9389 10 16.9989C10 17.2589 9.88999 17.5189 9.70999 17.7089C9.51999 17.8889 9.26 17.9989 9 17.9989C8.87 17.9989 8.74 17.9689 8.62 17.9189Z" fill="#E8B53D"/>
</svg>
