<svg width="25" height="25" viewBox="0 0 25 25" fill="none" xmlns="http://www.w3.org/2000/svg">
<path fill-rule="evenodd" clip-rule="evenodd" d="M7.25684 22.0723C3.60684 22.0723 1.50684 19.9723 1.50684 16.3223V9.32227C1.50684 5.67227 3.60684 3.57227 7.25684 3.57227H17.2568C20.9068 3.57227 23.0068 5.67227 23.0068 9.32227V16.3223C23.0068 19.9723 20.9068 22.0723 17.2568 22.0723H7.25684ZM3.00684 9.32227V16.3223C3.00684 19.1823 4.39684 20.5723 7.25684 20.5723H17.2568C20.1168 20.5723 21.5068 19.1823 21.5068 16.3223V9.32227C21.5068 6.46227 20.1168 5.07227 17.2568 5.07227H7.25684C4.39684 5.07227 3.00684 6.46227 3.00684 9.32227Z" fill="#E8B53D"/>
<path d="M9.91564 12.9022L6.78564 10.4022C6.46564 10.1422 6.40564 9.67223 6.66564 9.35223C6.92564 9.03223 7.39564 8.97224 7.71564 9.23224L10.8456 11.7322C11.6056 12.3422 12.8956 12.3422 13.6556 11.7322L16.7856 9.23224C17.1056 8.97224 17.5856 9.02223 17.8356 9.35223C18.0956 9.67223 18.0456 10.1522 17.7156 10.4022L14.5856 12.9022C13.9456 13.4322 13.0956 13.6922 12.2556 13.6922C11.4156 13.6922 10.5656 13.4322 9.91564 12.9022Z" fill="#E8B53D"/>
</svg>
